<?xml version="1.0" standalone="no"?>
<!DOCTYPE svg PUBLIC "-//W3C//DTD SVG 1.1//EN" "http://www.w3.org/Graphics/SVG/1.1/DTD/svg11.dtd" >
<svg xmlns="http://www.w3.org/2000/svg">
<metadata>
Created by FontForge 20120731 at Fri Oct 17 14:49:07 2014
 By Ads
</metadata>
<defs>
<font id="iconfont" horiz-adv-x="1024" >
  <font-face 
    font-family="iconfont"
    font-weight="500"
    font-stretch="normal"
    units-per-em="1024"
    panose-1="2 0 6 3 0 0 0 0 0 0"
    ascent="812"
    descent="-212"
    x-height="792"
    bbox="34 -189 990 792"
    underline-thickness="50"
    underline-position="-100"
    unicode-range="U+0078-E65E"
  />
<missing-glyph horiz-adv-x="374" 
d="M34 0v682h272v-682h-272zM68 34h204v614h-204v-614z" />
    <glyph glyph-name=".notdef" horiz-adv-x="374" 
d="M34 0v682h272v-682h-272zM68 34h204v614h-204v-614z" />
    <glyph glyph-name=".null" horiz-adv-x="0" 
 />
    <glyph glyph-name="nonmarkingreturn" horiz-adv-x="341" 
 />
    <glyph glyph-name="x" unicode="x" horiz-adv-x="1001" 
d="M281 543q-27 -1 -53 -1h-83q-18 0 -36.5 -6t-32.5 -18.5t-23 -32t-9 -45.5v-76h912v41q0 16 -0.5 30t-0.5 18q0 13 -5 29t-17 29.5t-31.5 22.5t-49.5 9h-133v-97h-438v97zM955 310v-52q0 -23 0.5 -52t0.5 -58t-10.5 -47.5t-26 -30t-33 -16t-31.5 -4.5q-14 -1 -29.5 -0.5
t-29.5 0.5h-32l-45 128h-439l-44 -128h-29h-34q-20 0 -45 1q-25 0 -41 9.5t-25.5 23t-13.5 29.5t-4 30v167h911zM163 247q-12 0 -21 -8.5t-9 -21.5t9 -21.5t21 -8.5q13 0 22 8.5t9 21.5t-9 21.5t-22 8.5zM316 123q-8 -26 -14 -48q-5 -19 -10.5 -37t-7.5 -25t-3 -15t1 -14.5
t9.5 -10.5t21.5 -4h37h67h81h80h64h36q23 0 34 12t2 38q-5 13 -9.5 30.5t-9.5 34.5q-5 19 -11 39h-368zM336 498v228q0 11 2.5 23t10 21.5t20.5 15.5t34 6h188q31 0 51.5 -14.5t20.5 -52.5v-227h-327z" />
    <glyph glyph-name="uniE60A" unicode="&#xe60a;" 
d="M500 347q-1 30 19 52.5t49.5 23.5t51.5 -19.5t23 -51t-19 -53t-50 -23.5h-2q-29 0 -49.5 20.5t-22.5 50.5zM180 276q94 66 197 92q-25 -32 -23 -80q3 -68 51.5 -114.5t115 -44t111.5 52.5t42 119q-1 35 -17 62q93 -26 188 -87q-149 158 -322 158q-55 0 -111 -17t-94 -38
t-74 -48.5t-47 -38t-17 -16.5zM142 278q7 9 20.5 23.5t58.5 50.5t93 61t122.5 41.5t149.5 5.5q39 -5 84 -26.5t81.5 -48t67.5 -52t49 -42.5l17 -18q-5 -7 -15.5 -19.5t-46 -43.5t-75.5 -55t-105 -43.5t-135 -19.5h-3q-165 1 -315 138q-31 27 -48 48zM518 533
q-74 -6 -139.5 -24t-109.5 -40.5t-81 -51.5t-57.5 -52t-36.5 -47.5t-20 -33t-5 -13.5q4 -5 12 -14.5t35 -36t56 -50t74 -51t91 -46t104.5 -27.5t117.5 -1q263 33 361 177q32 47 36 84q-9 9 -25 24.5t-64 55t-95.5 69.5t-112.5 54.5t-121 24.5q-10 0 -20 -1z" />
    <glyph glyph-name="uniE60E" unicode="&#xe60e;" 
d="M700 553q-45 -11 -55 -6t-17 3t-7.5 -8t2.5 -11l21 -7q12 1 25.5 -2t23.5 -7.5t31.5 -15.5t36.5 -18q88 -40 122 -52q22 -8 22 17q2 35 -32 69q-6 5 -11 9q-47 37 -103 37q-24 0 -59 -8zM353 197q9 5 -21 23q-47 28 -51 41q-2 5 -1 9q11 29 21 38.5t52 33.5q8 5 21.5 7
t26 2.5t23.5 2t17 7t4 15.5q-3 16 -19.5 22t-33.5 6.5t-29.5 11.5t-9.5 35q1 11 7.5 18.5t17.5 11.5t22 6t26.5 2.5t26 0t25.5 -1t20 -0.5h37l36 -37h37l6 -23q6 -24 6 -56t-12 -66q-16 -41 -112.5 -140t-187.5 -179.5t-100 -80.5q-4 0 -10 14t-10 38.5t-5 52.5t6 61.5
t22 60.5q11 20 23 32.5t26 17.5t22.5 6t24.5 1h7q25 0 39 7zM567 550l-32 10q8 7 6 21.5t-7 26t-12 27t-8 24.5q-5 23 -32 44t-60 21h-4q-9 0 -17.5 -2t-14.5 -4t-15.5 -7t-13 -7t-14.5 -9t-14 -9q-21 -12 -2 -17q11 -3 81 -10q23 -3 41.5 -14t30.5 -28t18.5 -30t11.5 -27
h-12q-26 5 -59 5q-90 0 -122 -41q-16 -20 -29 -40q-35 -54 -60 -114q0 -1 -13.5 -29.5t-24 -54.5t-26.5 -80.5t-29 -117.5q-14 -70 -16 -129.5t11.5 -94.5t40.5 -30q23 4 81.5 39t129.5 88t145 127.5t117 144.5q25 41 38.5 77.5t15 61.5t-2.5 46t-12.5 33.5t-17 21
t-15.5 11.5l-6 4v36l-21 7l-52 17q17 3 22 -1q1 -1 4 2.5t6.5 11t9 15.5t14 15.5t18.5 11.5q17 6 26 16.5t15 22t12 17t20 7.5t26.5 2.5t25 3t16.5 9t0 20.5l-1 3q-1 4 -2 7t-3 7.5t-4.5 8.5t-5.5 7.5t-7.5 5.5t-9.5 2h-2zM751 742h-19q-17 0 -27 -1t-27 -7.5t-33 -19.5
q-18 -15 -37.5 -56.5t-27.5 -65t-13 -42.5z" />
    <glyph glyph-name="uniE614" unicode="&#xe614;" 
d="M658 201h-123v124q0 9 -6.5 15.5t-16 6.5t-16.5 -6.5t-7 -15.5v-124h-123q-9 0 -16 -6.5t-7 -16t7 -16.5t16 -7h123v-123q0 -9 7 -16t16.5 -7t16 7t6.5 16v123h123q10 0 16.5 7t6.5 16.5t-6.5 16t-16.5 6.5zM843 314l-331 238l-332 -239q-5 -4 -5 -10v-341
q0 -26 19 -45.5t46 -19.5h544q27 0 46 19.5t19 45.5v339q1 1 1 2q0 7 -7 11zM748 -48h-471q-22 0 -31.5 9t-9.5 31v303l276 198l276 -198v-303q0 -22 -9 -31t-31 -9zM899 388l-387 290l-387 -291q-6 -5 -6 -12q0 -9 8 -20.5t18 -11.5t17 4l350 265l350 -264q8 -5 18 -5
t18 11.5t8 20.5q0 8 -7 13z" />
    <glyph glyph-name="uniE617" unicode="&#xe617;" 
d="M843 350q0 32 -22 54.5t-53.5 22.5t-53.5 -22.5t-22 -54.5q0 -28 17.5 -49t43.5 -26v-231q0 -3 -1 -9t-5.5 -22.5t-11.5 -31.5t-20.5 -33.5t-31 -32t-44 -22.5t-57.5 -9q-4 0 -10 0.5t-24 3.5t-34 9t-36 18t-34 28t-24 42.5t-10 58.5v160l15 2q9 2 33 10.5t42 20.5
t32.5 36.5t14.5 55.5v49q3 6 7.5 16t15 40t17 58t9.5 62.5t-3 61.5t-26 48t-54 27q-1 18 -14 30t-31 12t-31 -13t-13 -32t13 -32t31 -13q20 0 33 14h12l18 -6q58 -33 20 -170q-11 -41 -31 -89v-70q-1 -3 -2.5 -9t-11 -22t-22 -27.5t-38 -21.5t-57.5 -10h-12q-8 0 -29 4
t-37.5 11.5t-32 25.5t-19.5 43v76l-25 71q-53 176 26 198q9 2 20 2v1q13 -21 37 -21q19 0 32 13t13 32t-13 32t-32 13q-15 0 -27.5 -10t-15.5 -25q-9 -1 -18 -3t-23.5 -10t-25 -21t-18 -37t-8 -55.5t10 -79.5t33.5 -107l6 -69l3 -12q1 -8 9.5 -27t22.5 -34t43 -27t67 -12
v-181q0 -4 0.5 -10.5t5 -25t11.5 -35.5t22.5 -38t36.5 -36t54.5 -25.5t75.5 -10.5h10q7 0 26.5 3t37.5 8.5t40.5 18.5t40 30.5t32 47t19.5 66.5v261q24 7 39.5 27t15.5 46z" />
    <glyph glyph-name="uniE619" unicode="&#xe619;" 
d="M644 590v54q10 2 17 10t7 18v37q0 12 -9.5 20.5t-22.5 8.5h-248q-13 0 -22 -8.5t-9 -20.5v-37q0 -11 6.5 -18.5t16.5 -9.5v-54q-4 -12 -21.5 -30.5t-35 -35t-31.5 -44.5t-14 -60v-509q0 -31 23 -52.5t56 -21.5h311q32 0 55 21.5t23 52.5v509q0 29 -14 57.5t-31 47
t-34.5 37.5t-22.5 28zM610 -91h-203h-7q-3 0 -13 2.5t-17.5 7t-13.5 15t-6 25.5v448q0 5 0.5 12.5t6 27.5t15 35t30.5 27t50 12h119q4 1 11 0.5t25 -6t31.5 -16t25 -34.5t11.5 -58v-448q-2 -1 -0.5 -5.5t-2 -12t-8.5 -14.5t-19.5 -12.5t-34.5 -5.5z" />
    <glyph glyph-name="uniE61E" unicode="&#xe61e;" 
d="M725 694q-11 -4 -13.5 -7t0 -4.5t10.5 -3.5l10 -5q4 -1 8.5 -4.5t5.5 -7.5q0 -5 0.5 -8t-3.5 -6t-6 -5t-7.5 -4t-8 -2.5t-8.5 -2t-8 -2.5q-7 -2 -19.5 -10t-28.5 -19t-24 -16q-1 0 -10.5 -5.5t-12.5 -7.5t-12 -7.5t-13.5 -9.5t-11.5 -10t-12.5 -13t-10.5 -15
q-9 -14 -12 -23.5t-7 -24.5t-13 -36q-10 -26 -5.5 -50t14 -40t16.5 -20q9 -5 3 14q-2 9 -10 25q-7 17 -6 34t11 21q6 3 8.5 -3.5t5.5 -17t8 -14.5q5 -5 5 5q1 23 -9 39q-1 2 -4 5.5t-4 6t-2 6.5t-1 9t2 12q5 17 12 24.5t29 22.5l56 36q-20 -30 -27 -45q-15 -30 -26 -72
q-1 -6 -33 -85q-5 -12 -13.5 -44.5t-13.5 -44.5q-6 -11 -37 -50t-42 -60q-16 -28 -42 -47t-55 -26q-16 -5 -39 -13t-38 -14l-14 -6l-36 -19q111 29 115 30q11 4 18 -2q9 -8 -37 -34q-41 -23 -125 -59q-7 -3 -19.5 -11t-21.5 -14l-9 -7q21 10 70 31q10 4 92 22.5t119 24.5
q5 0 7 -2t1.5 -3.5t-1.5 -2.5q-40 -31 -55 -38q-10 -6 -34.5 -16t-43.5 -17l-19 -8q2 1 25 4.5t52 10.5t66 19.5t79 37t78 56.5q7 6 13 2q11 -9 -49 -54q-18 -13 -43 -26t-54.5 -27t-40.5 -20q54 22 80 33t70.5 35t62.5 45l-61 -94l-1 -1l-1 -1l-1 -1v-1l-1 -1l-1 -1v-1
l-1 -1l-1 -1v-1l-1 -1l-1 -1v-1l-56 -84q56 65 113 147q9 14 20 33.5t17.5 33t7.5 14.5q15 19 26 35q6 10 11.5 20.5t9.5 21.5t7.5 21t6 19.5t4 16t3 11.5t1.5 6q3 13 5 36.5t3.5 38.5t6 16.5t6.5 -5t3.5 -15.5t3.5 -11q1 -2 2 1t2 11q6 33 14 51q8 17 6.5 25t5.5 12
q6 8 9 27.5t10 31.5t9.5 39.5t10.5 38.5t3.5 27.5t0.5 21.5q4 8 0 21t-12 25l-7 12q-2 11 -9 16q-4 3 -2 3h-1q-2 1 -5 2q-10 4 -14.5 11.5t0.5 15.5q5 6 -0.5 8.5t-3.5 7.5q3 6 66 1q46 -4 51 -2q10 4 -25 25q-29 18 -44 19h-1q-9 0 -23.5 -5.5t-37.5 -16.5t-36 -17z" />
    <glyph glyph-name="uniE626" unicode="&#xe626;" 
d="M394 -107q0 -26 12.5 -40t44.5 -14h122q25 0 41.5 14t16.5 37v94h-237v-91zM394 15h238q2 55 6 119.5t13.5 167.5t28.5 200.5t44 161.5v71h-424v-71q14 -54 30 -127.5t37.5 -226t26.5 -295.5zM592 56h-158q-14 284 -81 566h313q-59 -198 -74 -566z" />
    <glyph glyph-name="uniE62A" unicode="&#xe62a;" 
d="M724 -85h-22v551q0 68 -35.5 116t-95.5 65v34q0 25 -17 42.5t-41.5 17.5t-41.5 -17.5t-17 -42.5v-34q-60 -17 -95.5 -65t-35.5 -116v-551h-22q-19 0 -33 -13t-14 -27.5t14 -27.5t33 -13h423q19 0 33 13t14 27.5t-14 27.5t-33 13zM638 -57h-251v523q0 47 24 79
q22 30 60 41l41 12l41 -12q39 -11 61 -41q24 -32 24 -79v-523z" />
    <glyph glyph-name="uniE630" unicode="&#xe630;" 
d="M512.5 765q-76.5 0 -130.5 -54t-54 -131v-360q0 -71 47 -123q3 -4 12.5 -11.5t13.5 -14.5l6 -27v-128q0 -44 31 -74.5t74.5 -30.5t74 30.5t30.5 74.5v128q5 22 8 27q4 7 12.5 14.5t11.5 10.5q48 52 48 124v360q0 77 -54 131t-130.5 54zM608 133q-1 -1 -4 -3
q-19 -15 -28 -33q-6 -12 -13 -40l-2 -6v-135q0 -21 -14 -35.5t-35 -14.5v149h-49v35l-1 5q-6 30 -12 42q-10 19 -30 34q-3 3 -4 3q-33 37 -33 86v360q0 53 38 91t91.5 38t91 -38t37.5 -91v-3h-61v-22h61v-86h-61v-23h61v-85h-61v-23h61v-86h-61v-23h61v-9q0 -50 -33 -87z
M512.5 624q-8.5 0 -15 -6.5t-6.5 -15.5v-505q0 -9 6.5 -15.5t15 -6.5t15 6.5t6.5 15.5v505q0 9 -6.5 15.5t-15 6.5z" />
    <glyph glyph-name="uniE633" unicode="&#xe633;" 
d="M429.5 40q-21.5 0 -36.5 -15t-15 -37t15 -37t36.5 -15t37 15t15.5 37t-15.5 37t-37 15zM776.5 40q-21.5 0 -36.5 -15t-15 -37t15 -37t36.5 -15t37 15t15.5 37t-15.5 37t-37 15zM738 536h-407l16 -59h391q67 0 115 -47.5t48 -115t-48 -115.5t-115 -48h-326q-15 0 -26.5 8
t-14.5 16l-4 8l-115 429q0 1 -0.5 3t-4 6.5t-8 8.5t-13 7t-18.5 3h-113q-12 0 -21 -9t-9 -21t8.5 -20.5t21.5 -8.5h105l115 -431l3 -6q2 -4 9 -14t16 -17.5t25 -14t34 -6.5h336q91 0 156 65t65 157t-65 157t-156 65z" />
    <glyph glyph-name="uniE634" unicode="&#xe634;" 
d="M512 -131q-77 18 -139.5 48t-100.5 62.5t-66 71t-41 68t-20.5 60t-8 40.5t-0.5 16v323q60 53 125 87.5t123 47t115.5 14t106.5 -10.5t93 -27.5t79 -35t59.5 -36t38.5 -27.5t13 -11v-303q0 -70 -21.5 -129.5t-52.5 -98t-74.5 -69.5t-79.5 -46.5t-75 -27t-52.5 -13.5
t-21.5 -3v0zM513 -48q4 1 12 2t31 7t45 14.5t51 24.5t53 36h-368q71 -58 176 -84zM806 502q-7 5 -18 14.5t-47 32t-74 39t-93.5 27.5t-109.5 6t-119.5 -34.5t-124.5 -84.5v-238q0 -9 1.5 -24t15 -56.5t37.5 -77.5q14 14 34 14h16v205q0 19 12.5 32.5t29.5 13.5t29.5 -13.5
t12.5 -32.5v-205h63v290v2v1h-143q-19 0 -32.5 12.5t-13.5 29.5t13.5 29.5t32.5 12.5h368q20 0 33.5 -12.5t13.5 -29.5t-13.5 -29.5t-33.5 -12.5h-142v-1v-2v-102h123q19 0 32 -12t13 -29.5t-13 -29.5t-32 -12h-123v-105h163q29 0 42 -24q47 71 47 168v238z" />
    <glyph glyph-name="uniE635" unicode="&#xe635;" 
d="M512 707q-114 0 -210.5 -56t-152.5 -152.5t-56 -210.5t56 -210.5t152.5 -153t210.5 -56.5t210.5 56.5t152.5 153t56 210.5t-56 210.5t-152.5 152.5t-210.5 56zM512 -48q-91 0 -168 45t-122 122.5t-45 168.5t45 168t122 122t168 45t168.5 -45t122.5 -122t45 -168
t-45 -168.5t-122.5 -122.5t-168.5 -45zM709.5 480q-12.5 12 -29.5 12t-30 -12l-138 -138l-138 138q-12 12 -29.5 12t-29.5 -12t-12 -29.5t12 -29.5l91 -91h-61q-18 0 -30 -12.5t-12 -30t12 -29.5t30 -12h125v-42h-125q-18 0 -30 -12.5t-12 -29.5t12 -29.5t30 -12.5h125v-84
q0 -17 12.5 -29.5t30 -12.5t29.5 12.5t12 29.5v84h126q17 0 29.5 12.5t12.5 29.5t-12.5 29.5t-29.5 12.5h-126v42h126q17 0 29.5 12t12.5 29.5t-12.5 30t-29.5 12.5h-62l92 91q12 12 12 29.5t-12.5 29.5z" />
    <glyph glyph-name="uniE636" unicode="&#xe636;" 
d="M446 3q15 -8 31.5 -3.5t25.5 20.5l214 384v1v1q2 2 2 4q1 2 1 4q1 2 1.5 4t0.5 4v2v2q0 2 -1 5q0 2 -0.5 3.5t-1.5 3.5q-1 3 -1 4t-1.5 3.5t-2.5 3.5t-2.5 3t-3 3t-2.5 3q-3 1 -4 2q-1 0 -1 0.5t-0.5 0.5t-0.5 1h-1q-3 1 -5 2q-1 0 -3.5 0.5t-4.5 1t-4 0.5h-1h-1h-299
q-17 0 -29.5 -12t-12.5 -29.5t12.5 -29.5t29.5 -12h228l-180 -323q-8 -15 -3.5 -31.5t20.5 -25.5zM512 707q-105 0 -196 -49t-149 -133l-74 72v-203h210l-74 72q45 72 120 114.5t163 42.5q91 0 168.5 -45t122.5 -122t45 -168t-45 -168.5t-122.5 -122.5t-168.5 -45t-168 45
t-122 122.5t-45 168.5q0 17 -12.5 29.5t-29.5 12.5t-29.5 -12.5t-12.5 -29.5q0 -114 56 -210.5t152.5 -153t210.5 -56.5t210.5 56.5t152.5 153t56 210.5t-56 210.5t-152.5 152.5t-210.5 56z" />
    <glyph glyph-name="uniE637" unicode="&#xe637;" 
d="M838 366h-651q-18 0 -30 -12t-12 -30v-414q0 -18 12 -30t30 -12h651q17 0 29.5 12t12.5 30v414q0 18 -12.5 30t-29.5 12zM796 -48h-567v330h567v-330zM512.5 624q95.5 0 163 -68t67.5 -163h84q0 130 -92 222.5t-222.5 92.5t-223 -92.5t-92.5 -222.5h84q0 95 68 163
t163.5 68zM575 -5l-36 137q31 16 31 50q0 24 -17 41t-41 17t-40.5 -17t-16.5 -41q0 -34 30 -50l-36 -137h126z" />
    <glyph glyph-name="uniE642" unicode="&#xe642;" 
d="M797 20q-43 0 -74 -30.5t-31 -74t31 -74t74 -30.5t74 30.5t31 74t-31 74t-74 30.5zM797.5 -129q-18.5 0 -31.5 13t-13 31.5t13 31.5t31.5 13t31.5 -13t13 -31.5t-13 -31.5t-31.5 -13zM229 20q-43 0 -74 -30.5t-31 -74t31 -74t74 -30.5t74 30.5t31 74t-31 74t-74 30.5z
M229.5 -129q-18.5 0 -31.5 13t-13 31.5t13 31.5t31.5 13t31.5 -13t13 -31.5t-13 -31.5t-31.5 -13zM509 466h-411q-26 0 -44.5 -18.5t-18.5 -44.5v-355h538v355q0 26 -19 44.5t-45 18.5zM193 67l103 181l-129 -7l192 188l-61 -144l125 10zM149 19h-114v-55q0 -25 15 -43
t44 -23q0 15 1 25q9 66 54 96zM307 19q55 -37 55 -119h211v119h-266zM805 347h-139q-27 0 -45.5 -18.5t-18.5 -45.5v-385h63q-1 7 -1 14q0 55 39 94.5t94.5 39.5t94.5 -39.5t39 -94.5q0 -7 -1 -14q25 2 42.5 20t17.5 44v182q0 7 -8 28.5t-25 51t-38 57t-51.5 47t-62.5 19.5z
M892 189q-13 3 -26 5t-20 3h-6h-119q1 64 0 77q0 6 3 10t7 4l3 1h96q17 2 37 -23q9 -10 24 -33.5t25 -41.5l11 -18q-16 11 -35 16z" />
    <glyph glyph-name="uniE654" unicode="&#xe654;" 
d="M324 374q0 13 -9.5 22t-22.5 9q0 -9 5 -17q-5 1 -10 1q-22 0 -37.5 -15.5t-15.5 -37.5v-34q11 -10 11 -26v-104q0 -7 -2 -14q15 -23 44 -23q22 0 37.5 15.5t15.5 37.5v148q0 22 -16 38zM315.5 336q9.5 0 9.5 -9t-9.5 -9t-9.5 9t9.5 9zM257.5 336q9.5 0 9.5 -9t-9.5 -9
t-9.5 9t9.5 9zM286.5 150q-15.5 0 -27 11t-11.5 27v60h77v-60q0 -16 -11.5 -27t-27 -11z" />
    <glyph glyph-name="uniE655" unicode="&#xe655;" 
d="M292 342q13 0 22.5 9.5t9.5 22.5q-13 0 -22.5 -9.5t-9.5 -22.5zM211.5 313q-15.5 0 -26.5 -11t-11 -26v-104q0 -15 11 -26t26.5 -11t26 11t10.5 26v104q0 15 -10.5 26t-26 11zM190.5 276q6.5 0 6.5 -6.5t-6.5 -6.5t-6.5 6.5t6.5 6.5zM238 172q0 -11 -8 -19t-19 -8t-19 8
t-8 19v42h54v-42zM231.5 263q-6.5 0 -6.5 6.5t6.5 6.5t6.5 -6.5t-6.5 -6.5z" />
    <glyph glyph-name="uniE656" unicode="&#xe656;" 
d="M324 374q0 -13 9 -22.5t23 -9.5q0 13 -9.5 22.5t-22.5 9.5z" />
    <glyph glyph-name="uniE657" unicode="&#xe657;" 
d="M429 221q-3 3 -6 0v0l-22 -22q-4 -3 -0.5 -6.5t6.5 0.5l11 11v-46q0 -6 6 -6t6 6v60q0 2 -1 3zM479 221q-3 3 -6 0l-22 -22q-4 -3 -0.5 -6.5t6.5 0.5v0l11 11v-46q0 -6 6.5 -6t6.5 6v60h-1q0 2 -1 3zM555 173q-6 0 -6 -6t6 -6t6 6t-6 6zM815 173q-6 0 -6 -6t6 -6t6 6
t-6 6zM529 221q-3 3 -6 0l-22 -22q-4 -3 -0.5 -6.5t6.5 0.5v0l11 11v-46q0 -6 6.5 -6t6.5 6v60q0 2 -2 3zM675 204q-11 0 -19 -7.5t-8 -18.5t8 -18.5t19 -7.5t18.5 7.5t7.5 18.5t-7.5 18.5t-18.5 7.5zM675 164q-6 0 -10 4t-4 10t4 10t10 4t10 -4t4 -10t-4 -10t-10 -4z
M606 192q8 0 12 -6l1 -1q2 -2 5 -2q6 0 6 6q0 1 -1 3q-8 12 -23 12q-10 0 -18 -7.5t-8 -18.5t8 -18.5t18 -7.5q15 0 23 12q1 2 1 3q0 6 -6 6q-4 0 -5 -2l-1 -1q-4 -6 -12 -6q-5 0 -9.5 4t-4.5 10t4.5 10t9.5 4zM866 192q7 0 12 -6v-1q2 -2 5 -2q6 0 6 6q0 1 -1 3
q-8 12 -22 12q-11 0 -19 -7.5t-8 -18.5t8 -18.5t19 -7.5q14 0 22 12q1 2 1 3q0 6 -6 6q-3 0 -5 -2l-1 -1q-4 -6 -11 -6q-6 0 -10 4t-4 10t4 10t10 4zM790 184q0 8 -6 14t-14.5 6t-14.5 -6q-6 6 -14.5 6t-14.5 -6t-6 -14v-26v0v0q0 -6 6 -6t6 6v26q0 8 8.5 8t8.5 -8v0v-26
q0 -6 6 -6t6 6v0v0v7v19q0 8 8.5 8t8.5 -8v0v-26q0 -6 6 -6t6 6v0v0v26zM960 179v0q0 11 -7.5 18t-18.5 7t-18.5 -7.5t-7.5 -17.5v-1v-20q0 -6 6 -6t6 6v0v20v0v1q0 5 4 9t10 4t10 -4t4 -9v-1v-20v0v0q0 -6 6 -6t6 6v19v2zM324 374q13 0 22.5 9t9.5 22q-14 0 -23 -9t-9 -22z
M527 328h-74q-6 0 -6 -6t6 -6h74q3 0 4.5 2t1.5 4q0 6 -6 6zM569 317h1v0q4 0 4 5v15q0 11 -11 11h-4h-142q-11 0 -11 -11v-15q0 -5 4 -5v0h1h19q5 0 5 5v10q0 4 4 4h102q4 0 4 -4v-10q0 -5 5 -5h19zM575 252h-45l10 15h14q7 0 7 7v23h-1q0 11 -11 11h-4h-114q-11 0 -11 -11
v-23q0 -7 6 -7h14l10 -15h-45q-6 0 -6 -6t6 -6h170q6 0 6 6t-6 6zM501 252h-22l-10 15h42zM453 280q-4 0 -5 4v8q1 4 5 4h74q4 0 5 -4v-8q-1 -4 -5 -4h-74zM405 376h71v-8h-58q-6 0 -6 -6q0 -3 2 -4.5t4 -1.5h144q6 0 6 6t-6 6h-58v8h71q6 0 6 6t-6 6h-71v2q0 6 -6 6v0h-16
q-6 0 -6 -6v0v0v-2h-71q-6 0 -6 -6t6 -6zM600 376h22v-3v0h1q0 -6 5 -6h17q6 0 6 6v3h70v-3v0v0q1 -6 6 -6h17q6 0 6 6v3h19q6 0 6 6t-6 6h-19v2q0 6 -6 6v0h-17q-6 0 -6 -6v0v0v-2h-70v2q0 6 -6 6v0h-17q-5 0 -6 -6v0v0v-2h-22q-6 0 -6 -6t6 -6zM718 273.5q8 8.5 0 16.5
l-23 22q-8 8 -16 0t0 -16l23 -22q8 -9 16 -0.5zM704 299l11 -12q6 -5 0.5 -11t-11.5 0l-11 11zM602 274q0 -11 11 -11h38q6 0 6 6t-6 6h-15q-4 0 -4 4v2l21 36q1 1 1 2q0 4 -4 4h-2h-11q-4 1 -4 5v1l14 24q1 1 1 2q0 4 -5 5h-15q-7 -1 -10 -7l-15 -27q-1 -2 -1 -4
q0 -10 10 -11h10l-19 -32q-1 -2 -1 -5zM608 240h153q6 0 6 6v97q0 10 -11 10v1h-58q2 3 3 6q1 1 1 2q0 4 -5 4h-15q-7 0 -10 -6l-15 -31v-2q0 -4 4 -4q15 -1 30 18h43q4 0 4 -4v-81q0 -4 -4 -4h-126q-6 0 -6 -6t6 -6zM909 240h45q6 0 6 6v10v129v0q0 11 -11 11h-4h-146
q-11 0 -11 -11v-139q0 -6 6 -6h16q3 0 4.5 2t1.5 4v12l27 45l22 -35q3 -5 9 -5t9 5l21 35l27 -45v-2q0 -4 -4 -4h-18q-6 0 -6 -6t6 -6zM816 289v58l18 -29zM878 289q-2 -2 -4 -2t-4 2l-17 29l17 29q2 2 4 2t4 -2l17 -29zM904 333l-21 35q-3 4 -9 4t-9 -4l-21 -35l-28 45v2
q1 4 5 4h106q4 0 4 -4v-2zM914 318l17 29v-58zM128 440q-26 0 -45 -18.5t-19 -44.5v-178q0 -27 19 -45.5t45 -18.5q32 0 51 26q-2 5 -2 11v104q0 18 15 28v73q0 26 -19 44.5t-45 18.5zM93.5 377q4.5 0 7.5 -3.5t3 -8t-3 -8t-7.5 -3.5t-8 3.5t-3.5 8t3.5 8t8 3.5zM174 199
q0 -19 -13.5 -32.5t-32.5 -13.5t-32.5 13.5t-13.5 32.5v71h92v-71zM162.5 354q-4.5 0 -7.5 3.5t-3 8t3 8t7.5 3.5t8 -3.5t3.5 -8t-3.5 -8t-8 -3.5z" />
    <glyph glyph-name="uniE658" unicode="&#xe658;" 
d="M188 696q3 3 8.5 7t21 5t29.5 -12q105 -125 117 -163q4 -43 -14 -60q-3 -2 -17 -12t-26.5 -19.5t-25.5 -26t-18 -33.5t1.5 -40t26.5 -47q38 -44 78 -85t89 -86t94 -71t77 -25q1 1 3.5 1.5t9.5 5.5t14 12t15.5 22t15.5 34l5 5q3 3 13.5 10t22.5 10t33 1t44 -12
q33 -14 60.5 -33.5t47.5 -43.5t20 -50.5t-25 -50.5q-115 -105 -235 -59q-28 11 -79.5 43t-121.5 87t-137 119.5t-128 148.5t-92 166q-4 4 -9 12t-11 34t-2 53.5t27.5 69t67.5 83.5z" />
    <glyph glyph-name="uniE65B" unicode="&#xe65b;" 
d="M655 -184q-60 0 -111 29q-54 30 -85 83l-285 494q-46 81 -22 171.5t105 136.5q52 30 112 30q59 0 111 -29q54 -30 84 -83l286 -494q46 -81 22 -171.5t-105 -136.5q-52 -30 -112 -30zM287 677q-58 -34 -76 -99.5t16 -124.5l286 -494q21 -38 59.5 -60t82.5 -22t82 22
q58 34 76 99.5t-16 124.5l-286 494q-21 38 -59.5 60t-82.5 22t-82 -22zM645 333l-156 271q-18 32 -50.5 50.5t-69.5 18.5t-69 -18q-49 -29 -64 -84.5t14 -104.5l156 -271z" />
    <glyph glyph-name="uniE65D" unicode="&#xe65d;" 
d="M465 -161q-32 0 -62 7q-67 17 -119.5 66.5t-83.5 124.5q-62 152 -17 332q40 160 146 264t230 104q32 0 62 -7q67 -17 119.5 -67t81 -120.5t36 -157.5t-16.5 -178q-40 -160 -146 -264t-230 -104zM559 678q-104 0 -194 -91t-125 -232q-40 -162 15 -295q25 -63 67 -103
t95 -53q23 -6 48 -6q104 0 194 91t125 232q21 79 15.5 154.5t-28.5 136.5t-66 104t-98 56q-23 6 -48 6zM515 -6q-12 66 -31 128q-16 50 -39 89l21 13q23 -38 41 -95q20 -64 32 -131zM487 393q0 -12 -8.5 -20.5t-21 -8.5t-21 8.5t-8.5 20.5t8.5 21t21 9t21 -9t8.5 -21z
M669 361.5q0 -11.5 -8 -19.5t-20 -8t-20 8t-8 19.5t8 20t20 8.5t20 -8.5t8 -20zM367 344q3 -4 7 -8q-12 30 -12 61q0 73 55 124t132 51t132 -51t55 -124q0 -45 -24 -85q27 31 48 79q1 4 1 6q0 83 -62 141.5t-149.5 58.5t-149.5 -58.5t-62 -141.5q0 -12 1 -23q16 -17 28 -30z
M458 193l-4 5q-63 84 -105 129q-43 47 -118 120l17 17q69 -66 119 -120q44 -48 103 -126q110 5 203 60q23 14 44 40.5t34 52t23.5 55t13.5 41.5t5 18l24 -6q-2 -8 -5.5 -21t-15 -44t-25.5 -58t-37 -55.5t-49 -43.5q-47 -28 -104.5 -44t-80 -18t-36.5 -2h-6z" />
    <glyph glyph-name="uniE65E" unicode="&#xe65e;" 
d="M512 735q-112 0 -209 -52t-159 -142l-79 77v-217h224l-79 77q48 77 128 122t174 45q97 0 179.5 -47.5t130 -130t47.5 -179.5t-47.5 -179.5t-130 -130t-179.5 -47.5t-179.5 47.5t-130 130t-47.5 179.5q0 19 -13.5 32t-32 13t-31.5 -13t-13 -32q0 -91 35.5 -173.5
t95.5 -142.5t142.5 -95.5t173.5 -35.5t173.5 35.5t142.5 95.5t95.5 142.5t35.5 173.5t-35.5 173.5t-95.5 142.5t-142.5 95.5t-173.5 35.5zM380 53q-42 0 -78 23q-35 22 -53 59q-7 13 -2 27.5t18.5 21t27.5 1.5t21 -18q9 -19 27 -30t39 -11q31 0 52.5 21.5t21.5 52t-21.5 52
t-52.5 21.5q-22 0 -41 -12q-1 -1 -2 -1l-5 -4q-12 -7 -25.5 -4t-22 13.5t-7.5 24.5t11 23l102 103h-96q-15 0 -25.5 10.5t-10.5 25.5t10.5 25.5t25.5 10.5h184q24 0 33 -22.5t-8 -39.5l-85 -85q47 -13 78 -52t31 -89q0 -61 -43 -104t-104 -43zM659 53q-54 0 -93 38.5
t-39 93.5v172q0 54 39 92.5t93 38.5t92.5 -38.5t38.5 -92.5v-172q0 -55 -38.5 -93.5t-92.5 -38.5zM659 416q-24 0 -41.5 -17.5t-17.5 -41.5v-172q0 -25 17.5 -42t41.5 -17t41.5 17t17.5 42v172q0 24 -17.5 41.5t-41.5 17.5z" />
  </font>
</defs>
</svg>
